<svg width="1024" height="1024" viewBox="0 0 1024 1024" fill="none" xmlns="http://www.w3.org/2000/svg">
<g clip-path="url(#clip0_83_143)">
<path d="M512 0C646.915 0 769.641 52.1831 861.098 137.466C858.708 137.535 856.311 137.934 853.931 138.715C848.284 140.567 845.943 148.168 844.442 153.599C854.735 160.093 861.331 171.669 865.188 182.938C844.834 151.303 807.591 132.75 770.049 134.601C750.535 135.806 733.985 142.621 720.655 157.274C703.015 176.668 700.742 211.009 721.717 228.897C738.658 243.346 769.38 243.761 784.264 226.044C789.929 219.27 792.613 210.492 791.703 201.708C790.53 190.099 784.176 183.585 774.85 177.802C834.669 181.248 850.514 232.62 846.774 285.064C844.522 316.143 833.7 345.989 815.509 371.287C811.285 377.093 802.409 385.646 801.044 391.312C800.211 394.357 799.339 397.927 798.303 400.867C847.163 377.954 884.846 344.186 904.06 292.464C915.764 260.955 918.14 222.746 909.24 188.952C980.986 277.068 1024 389.511 1024 512C1024 794.77 794.77 1024 512 1024C229.23 1024 0 794.77 0 512C0 229.23 229.23 0 512 0ZM451.634 739.237C432.05 748.025 408.292 754.974 386.653 755.923C361.243 793.959 352.185 849.735 378.706 889.497C365.124 852.78 372.798 821.061 404.001 796.319C397.172 804.85 391.308 811.569 386.45 821.4C383.403 827.956 381.501 832.533 379.728 839.728C373.533 864.862 382.873 900.413 414.803 898.349C417.666 898.164 420.931 897.312 423.609 896.201C431.027 893.153 436.908 887.25 439.929 879.821C446.216 863.962 439.355 853.652 429.938 842.183C420.93 831.212 432.015 812.08 443.774 808.059C458.388 803.061 477.031 807.251 484.688 788.704C486.811 783.695 486.699 778.018 484.381 773.097C479.618 762.845 465.962 758.96 458.33 749.882C455.962 747.065 452.837 739.752 451.634 739.237ZM315.085 547.994C304.489 560.611 283.069 578.317 269.921 589.387C257.809 599.626 245.618 609.775 233.354 619.833C186.368 658.125 148.083 691.429 134.085 753.03C129.52 772.465 128.079 792.504 129.822 812.393C132.656 844.023 148.528 894.271 190.472 891.475C204.823 890.517 204.953 878.223 195.696 870.296C187.112 862.046 179.648 850.865 175.16 839.982C182.964 850.905 190.118 859.692 200.707 868.25C222.324 885.72 251.215 895.446 279.1 892.352C298.752 890.679 314.324 884.528 327.598 869.16C336.562 858.781 341.704 842.316 340.415 828.62C339.169 816.362 333.133 805.091 323.621 797.258C314.568 789.702 302.85 786.115 291.119 787.308C281.015 788.411 271.654 792.931 265.304 800.988C259.249 808.769 256.487 818.615 257.611 828.41C259.093 840.726 264.372 845.972 274.646 851.548C216.149 847.716 192.941 791.828 196.816 739.652C198.904 708.453 209.119 678.344 226.448 652.316C249.783 617.285 282.316 595.223 309.468 564.122C312.032 561.183 315.33 552.075 315.085 547.994ZM468.231 817.963C453.206 823.855 441.226 838.697 448.151 855.241C450.352 860.371 454.563 864.371 459.8 866.305C461.289 866.871 462.975 867.201 464.541 867.509C474.229 867.813 478.479 865.094 483.573 857.043C469.186 846.372 464.868 836.198 469.07 818.892L468.729 818.118L468.231 817.963ZM710.92 626.385C699.237 632.319 690.517 635.077 678.991 640.111C650.962 689.583 648.181 799.185 585.246 816.243C576.035 818.723 566.216 817.443 557.948 812.685C549.989 808.049 544.169 800.476 541.736 791.593C541.298 789.95 540.56 785.373 540.88 783.734C542.124 785.153 542.699 790.634 543.485 792.866C547.185 803.351 559.824 812.763 571.138 812.901C611.034 813.39 637.085 762.251 641.413 729.092C632.726 755.833 622.156 782.97 597.189 799.235C589.375 803.916 580.258 807.951 571.023 805.869C559.102 803.18 559.271 792.352 558.15 782.672C556.713 771.628 550.442 765.815 540.244 762.788C518.626 756.371 500.624 773.418 495.87 793.206C487.969 826.097 507.54 856.335 540.163 864.132C563.714 869.536 588.448 865.264 608.821 852.274C666.816 815.883 676.039 732.848 692.411 672.518C695.888 659.706 703.637 639.377 710.94 627.138C710.934 626.887 710.927 626.636 710.92 626.385ZM930.411 348.6C916.116 349.739 905.196 354.279 895.546 365.306C883.914 378.597 881.109 395.77 882.451 412.914C883.214 422.66 885.814 431.005 887.305 440.397C890.469 460.713 884.648 481.401 871.356 497.087C847.018 526.259 801.682 529.289 765.94 534.509C760.231 553.805 756.247 571.17 746.504 589.018C766.011 576.158 779.051 570.451 802.367 565.382C791.758 569.494 779.25 574.251 769.72 579.985C746.86 593.737 721.983 619.72 712.022 644.547C687.407 705.903 688.019 776.245 650.167 832.828C645.503 839.798 639.736 846.366 634.078 852.649L627.312 859.837C656.636 858.86 675.457 853.6 696.252 831.962C751.097 775.37 716.238 697.634 760.834 634.505C819.95 550.82 941.11 595.423 984.24 493.894C1002.82 450.158 1006.43 401.566 969.644 364.504C959.16 353.941 945.198 349.143 930.411 348.6ZM478.671 820.004C469.4 835.679 478.258 852.026 497.142 851.02C498.939 850.491 499.533 850.68 500.465 849.494L495.876 844.862C490.342 839.241 485.18 824.42 478.671 820.004ZM922.588 594.293C913.554 584.248 895.689 576.816 882.21 579.12C849.065 583.816 805.346 604.47 784.195 631.417C764.035 657.102 769.239 700.432 779.392 729.192C785.544 746.621 796.113 759.107 792.596 778.848L792.246 778.631C791.693 757.491 787.16 754.573 778.826 735.888C766.677 708.652 762.641 680.111 770.544 651.106C753.465 684.154 751.866 725.356 739.847 760.591C736.197 771.294 733.337 783.594 731.279 794.671C725.682 824.464 746.878 852.279 779.135 840.415C791.723 835.737 801.905 826.199 807.396 813.942C817.957 790.769 811.717 770.191 799.785 749.271C795.722 742.014 791.354 734.651 787.927 726.464C775.783 697.326 775.517 650.591 805.199 631.519C810.86 627.881 819.957 627.098 826.212 629.006C843.646 634.326 849.677 655.356 844.567 671.323C839.171 688.187 820.806 692.728 813.162 675.104C808.639 664.336 811.647 659.572 816.919 650.522L816.479 649.497C813.979 648.553 813.103 649.311 810.641 650.269C791.85 657.568 791.468 684.495 799.487 700.892C804.275 710.72 812.806 718.215 823.168 721.701C833.125 724.952 843.974 724.049 853.257 719.196C878.228 706.181 878.353 672.349 874.148 648.586C872.249 637.848 869.506 624.333 880.326 617.847C887.994 612.801 900.981 619.133 897.669 627.642C896.596 628.864 894.708 629.024 893.004 629.429L892.782 628.73C894.392 627.006 894.284 627.612 894.69 625.61C893.774 623.88 893.464 623.532 891.522 622.838C886.443 621.023 881.512 623.82 880.667 629.245C878.62 642.395 887.905 652.355 900.77 653.641C908.838 654.433 916.881 651.901 923.041 646.63C929.82 640.827 932.812 633.368 933.307 624.663C933.967 613.51 930.104 602.561 922.588 594.293ZM370.83 756.864C362.874 756.323 354.492 756.264 346.503 756.376C322.274 756.717 297.723 755.918 273.522 756.675L262.472 756.905C278.599 774.324 287.313 774.012 308.907 780.577C335.529 788.672 346.516 810.402 353.251 835.455L353.816 825.604C355.092 800.964 358.978 778.876 370.83 756.864ZM801.482 726.92C806.071 744.121 816.962 746.183 821.184 762.53C824.173 774.1 814.502 791.513 824.771 799.959C830.399 804.225 839.963 798.505 844.317 794.403C858.542 778.246 856.011 755.531 839.937 741.862C829.36 732.87 815.091 728.421 801.482 726.92ZM224.718 684.918C222.303 689.397 221.132 693.587 219.586 698.627C210.656 727.72 209.298 768.557 238.312 787.052C241.967 789.381 246.97 789.856 251.264 789.355C260.995 785.183 262.827 778.646 258.612 768.877C255.662 762.04 250.443 756.496 246.259 750.424C231.186 729.945 222.653 711.978 224.772 686.113C224.828 685.431 224.818 685.586 224.718 684.918ZM618.543 647.567C605.79 647.68 592.567 647.421 579.922 647.661C571.261 659.206 565.223 667.563 552.32 674.749C534.976 684.407 520.774 685.155 502.492 678.253C498.034 707.363 479.457 723.762 454.988 737.806C466.745 748.71 474.419 753.492 490.531 756.793C504.589 759.165 516.429 758.749 530.073 754.341C578.922 738.556 595.943 688.379 618.543 647.567ZM650.967 645.906C650.69 645.913 649.656 645.913 649.429 645.974C640.69 646.603 635.207 646.327 629.423 654C619.114 667.676 609.062 682.406 600.387 697.179C592.395 710.786 580.585 732.367 593.67 746.314C625.984 765.429 641.986 691.564 645.478 671.179C646.733 663.847 648.906 654.049 651.23 647.076L650.967 645.906ZM151.16 666.666C143.155 678.953 134.256 691.882 118.967 695.111C111.266 696.738 103.366 694.597 95.9297 697.555C84.8059 701.979 80.5022 713.391 89.0898 722.789C106 734.242 128.71 717.21 138.078 703.292C142.962 696.036 152.45 675.17 151.16 666.666ZM754.226 308.407C723.596 276.35 660.763 281.569 619.888 281.578L517.397 281.609L449.321 281.595C440.1 281.591 422.461 281.073 413.682 281.835C388.214 283.589 365.475 289.441 348.28 309.452C331.84 328.585 328.445 355.946 349.316 373.229C359.139 381.27 371.794 385.005 384.409 383.583C395.173 382.471 403.29 378.442 411.497 371.633C406.716 380.079 405.024 382.694 397.279 388.38C376.703 456.289 358.749 524.777 337.937 592.856L323.415 639.867C308.225 688.561 315.015 677.47 269.348 680.312L261.174 714.243L345.975 714.228C384.416 714.158 423.629 718.15 453.518 688.481C461.857 680.202 469.486 667.542 473.843 656.686C478.896 643.415 484.098 623.048 488.408 608.808C506.516 609.859 532.88 609.223 551.926 609.114C596.633 608.202 652.508 614.726 689.426 584.233C700.885 574.768 713.64 556.364 719.121 542.667C730.327 514.665 737.451 482.589 745.364 453.543C748.635 441.43 752.023 429.348 755.525 417.3C765.042 384.685 780.819 336.242 754.226 308.407ZM289.9 371.094C286.159 376.475 283.113 381.997 279.556 387.325C271.865 398.845 259.145 411.879 247.42 419.465C224.578 434.242 196.047 443.386 169.878 450.231C160.003 452.814 148.768 454.696 138.647 457.142C111.731 463.649 87.9227 475.204 67.9922 494.772C54.7091 507.814 45.9183 520.198 38.6211 537.232C27.6622 562.256 24.3568 589.964 29.1201 616.863C33.1361 638.733 44.4899 659.849 63.1455 672.547C75.2028 680.92 90.1063 684.126 104.541 681.451C117.331 679.008 128.646 671.626 136.036 660.904C144.599 648.228 145.476 636.286 144.467 621.586C143.279 611.237 140.861 600.863 139.125 590.384C133.57 557.895 150.292 524.758 180.521 511.123C198.554 502.991 220.206 502.148 239.294 496.659C278.225 485.465 318.08 459.097 331.433 419.143C325.527 415.704 321.563 413.136 315.95 409.26C310.161 416.709 305.714 422.444 298.843 429.069C280.461 446.799 254.178 458.805 229.615 465.21C262.806 450.768 288.393 433.436 307.332 401.741C302.666 395.675 299.585 391.683 296.12 384.687C294.804 382.029 291.135 372.701 289.9 371.094ZM564.744 647.806C545.639 647.587 526.53 647.539 507.424 647.663C505.925 651.238 504.296 663.41 503.807 667.601C519.964 674.382 536.849 670.043 551.281 661.358C556.988 657.319 560.806 653.719 564.744 647.806ZM300.636 590.857C286.824 604.437 271.625 619.752 257.625 632.944L257.813 633.432L258.321 633.332C268.358 629.649 275.417 628.909 286.151 630.191C291.839 617.904 296.5 604.335 301.178 591.554L300.636 590.857ZM329.303 455.533C314.149 470.485 298.423 486.358 278.306 494.282C265.051 499.503 247.871 504.529 233.72 506.534C202.239 510.995 172.17 512.808 154.301 543.55C141.434 565.687 139.309 596.392 158.662 615.807C163.076 620.306 168.415 623.79 174.311 626.017C208.014 637.51 242.521 613.391 233.077 576.373C232.276 573.229 231.327 570.391 230.198 567.345C223.077 565.58 215.7 563.64 208.547 562.157C216.224 561.445 225.052 562.791 232.814 562.412C282.241 559.996 325.088 525.036 328.311 474.07C328.636 468.925 330.363 460.544 329.303 455.533ZM980.333 518.805C966.712 536.641 951.544 550.295 931.931 561.357C928.881 563.078 907.479 573.344 907.023 574.156C908.152 574.826 908.467 575.052 909.688 575.494C935.786 582.844 973.212 567.056 980.173 539.277C981.675 533.279 982.086 524.718 980.333 518.805ZM866.731 492.147C893.563 460.79 886.227 396.729 835.275 399.396C788.56 402.546 790.06 455.883 802.346 456.344C806.098 455.031 807.32 450.901 806.354 447.318C812.239 449.703 808.738 471.228 786.79 460.625L775.288 500.533C773.096 508.066 769.606 518.986 768.222 526.514C774.924 525.562 781.667 524.923 788.429 524.598C817.516 521.663 846.662 515.605 866.731 492.147ZM131.054 444.981C126.439 443.525 118.895 443.792 114.086 444.448C93.6383 447.267 66.5396 454.31 53.4219 471.736C48.2779 478.436 46.1409 486.968 47.5186 495.301C47.9123 497.785 48.6331 500.885 49.3076 503.316L57.5322 494.279C76.4194 475.509 97.676 461.375 122.023 450.311C125.026 448.947 128.508 447.547 131.082 445.504L131.054 444.981ZM316.427 229.929C322.476 206.438 311.478 175.937 283.22 177.388C262.437 179.345 248.576 191.463 241.103 210.854C230.022 239.744 245.227 270.551 254.864 297.142C264.27 323.095 262.457 358.496 244.141 380.364C212.977 417.569 181.209 374.544 203.168 342.642C204.502 340.705 208.419 338.933 210.879 339C233.197 342.789 229.171 365.262 219.371 377.764C239.298 375.783 245.335 355.311 243.706 338.084C240.265 301.685 197.639 283.261 173.346 313.966C165.745 323.57 162.484 335.001 161.636 346.97C159.977 364.203 171.838 389.98 156.99 403.401C153.675 406.398 147.353 407.975 143.731 404.537C137.171 398.308 138.942 391.731 143.01 384.796C142.842 388.396 141.147 396.716 143.529 398.829C152.976 407.208 158.193 395.885 158.606 388.863C159.013 382.927 156.913 377.093 152.816 372.777C144.134 363.631 128.429 363.539 117.733 369.033C83.9661 388.739 106.856 436.56 138.259 443.891C162.742 449.608 190.349 436.178 211.519 424.347C235.004 409.983 260.693 387.544 267.088 359.622C274.978 325.17 263.764 299.135 258.972 266.007C258.116 260.093 258.006 251.385 258.385 245.366C258.596 242.01 259.461 239.068 259.625 235.396C260.175 237.2 259.745 247.756 259.8 250.591C259.888 255.682 260.304 260.762 261.047 265.799C267.703 311.858 284.53 331.41 264.13 380.554C269.629 373.593 277.239 357.552 280.39 348.875C289.131 324.797 295.827 299.607 303.171 275.046C307.64 260.094 312.539 245.023 316.427 229.929ZM944.83 329.783C953.962 314.403 939.781 306.506 927.135 307.994C900.388 312.746 887.302 337.6 884.392 362.543C887.288 358.361 888.906 354.484 892.356 349.655C899.447 341.56 907.811 335.525 918.462 334.631C925.293 334.058 941.15 335.982 944.83 329.783ZM794.91 235.545C790.234 236.53 786.778 237.904 784.13 242.05C776.254 254.375 790.918 264.799 797.115 272.986C811.556 292.063 814.272 317.923 811.99 341C811.474 346.297 808.961 355.361 808.896 358.946C809.575 358.701 809.36 358.917 809.644 358.426C824.908 332.336 832.692 302.584 824.896 272.793C821.093 258.255 812.656 236.235 794.91 235.545ZM219.209 221.251C186.031 227.066 196.486 279.138 220.357 294.705C222.391 296.054 224.514 297.265 226.711 298.327C232.35 300.407 236.139 300.977 242.136 301.629C233.452 287.747 227.994 261.946 226.888 245.918C226.254 236.743 233.605 221.128 219.209 221.251ZM424.995 166.763C420.477 166.714 409.3 166.437 405.193 167.119C381.361 169.795 359.555 181.791 344.539 200.49C330.073 218.238 323.017 236.324 318.664 258.633C317.25 265.878 315.788 275.481 314.078 282.401C317.34 279.082 321.124 275.018 324.668 272.119C338.797 261.181 352.99 254.943 370.849 252.749C379.905 220.454 397.552 186.89 424.995 166.763ZM636.953 126.001C613.73 129.195 602.468 151 613.417 172.238C617.028 179.244 625.829 183.366 622.689 193.65C621.764 197.634 620.707 199.82 618.302 203.481C604.207 224.932 564.088 206.601 565.884 239.787C566.146 244.627 569.666 249.588 572.647 252.991C601.989 253.098 636.231 253.88 665.174 252.785C668.788 249.843 670.612 247.508 673.281 243.672C687.266 218.662 687.5 189.226 681.211 161.918C680.754 185.405 678.588 218.627 654.98 231.207C659.605 224.297 662.577 219.264 665.62 211.503C676.162 184.619 679.45 125.701 636.953 126.001ZM539.813 252.869C583.221 211.941 547.188 153.085 490.398 156.86C458.527 158.885 437.56 171.146 415.898 194.835C403.229 208.688 389.705 234.281 384.188 252.56L412.332 252.473C426.009 225.069 458.722 191.23 492.927 207.222C499.17 210.141 504.221 215.83 507.717 221.688L500.251 216.163C480.381 205.432 457.61 208.82 441.861 225.178C444.5 223.653 447.263 221.924 450.122 220.907C475.005 212.051 498.534 224.075 496.119 252.852C508.158 252.894 528.293 253.614 539.813 252.869ZM696.094 203.88C693.713 221.092 691.663 227.915 685.544 243.751C692.069 242.21 698.71 241.212 705.399 240.766C709.222 240.533 713.05 240.397 716.881 240.357C709.188 232.216 703.552 223.59 699.509 213.103C698.979 211.728 696.612 204.393 696.094 203.88ZM601.285 161.933C596.422 155.26 590.458 152.534 582.361 153.285C566.89 162.274 579.155 170.679 583.535 181.704C585.382 186.354 585.915 192.263 586.341 197.25C590.378 196.426 592.276 196.106 596.09 194.526C601.367 190.858 604.376 186.813 605.547 180.313C606.709 173.861 605.167 167.215 601.285 161.933ZM572.908 173.861C569.103 169.041 566.379 167.717 560.426 168.088C549.704 176.187 564.504 194.014 573.58 194.133C580.432 188.953 577.486 179.662 572.908 173.861Z" fill="black"/>
<path d="M567.25 374.755C576.036 374.283 591.778 373.421 599.73 376.959C605.323 379.64 607.321 387.992 605.863 393.436C598.95 419.262 591.519 444.932 584.32 470.683C581.431 481.018 578.839 492.928 573.855 502.376C570.791 508.182 562.652 511.576 556.522 512.809C547.616 513.817 526.353 513.292 516.555 513.298C524.96 484.582 533.16 455.806 541.157 426.974C543.929 416.968 546.516 406.843 549.253 396.828C552.415 385.264 554.624 378.086 567.25 374.755Z" fill="#0A0C08"/>
</g>
<defs>
<clipPath id="clip0_83_143">
<rect width="1024" height="1024" fill="white"/>
</clipPath>
</defs>
</svg>
